<svg width="71" height="56" viewBox="0 0 71 56" fill="none" xmlns="http://www.w3.org/2000/svg">
<path fill-rule="evenodd" clip-rule="evenodd" d="M34.6408 18.1877C34.6408 17.7276 34.458 17.2864 34.1327 16.9611C33.8074 16.6358 33.3662 16.4531 32.9062 16.4531C32.4461 16.4531 32.0049 16.6358 31.6796 16.9611L25.2873 23.3534L23.8012 21.8673L35.0997 10.5689L43.6855 19.1546L39.5339 23.3062C39.5425 23.2361 39.5469 23.1652 39.5469 23.0938C39.5469 22.6338 39.3642 22.1926 39.0389 21.8673C38.7136 21.542 38.2724 21.3592 37.8123 21.3592C37.3523 21.3592 36.9111 21.542 36.5858 21.8673L30.1935 28.2596L27.7404 25.8065L34.1327 19.4142C34.458 19.0889 34.6408 18.6477 34.6408 18.1877ZM22.8343 25.8065L21.8673 26.7735C21.542 27.0988 21.3592 27.54 21.3592 28C21.3592 28.46 21.542 28.9012 21.8673 29.2265C22.1926 29.5518 22.6338 29.7346 23.0938 29.7346C23.5539 29.7346 23.9951 29.5518 24.3204 29.2265L25.2873 28.2596L27.7404 30.7126L26.7735 31.6796C26.4482 32.0049 26.2654 32.4461 26.2654 32.9062C26.2654 33.3662 26.4482 33.8074 26.7735 34.1327C27.0988 34.458 27.54 34.6408 28 34.6408C28.46 34.6408 28.9012 34.458 29.2265 34.1327L30.1935 33.1657L38.7793 41.7515L35.0997 45.4311L17.6685 28L21.3482 24.3204L22.8343 25.8065ZM35.0997 50.3373L30.4531 54.9839C29.8025 55.6345 28.9201 56 28 56C27.0799 56 26.1975 55.6345 25.5469 54.9839L1.0161 30.4531C0.365501 29.8025 0 28.9201 0 28C0 27.0799 0.365501 26.1975 1.0161 25.5469L25.5469 1.0161C26.1975 0.3655 27.0799 0 28 0C28.9201 0 29.8025 0.3655 30.4531 1.0161L35.0997 5.66269L39.7463 1.0161C40.3969 0.365501 41.2793 0 42.1994 0C43.1194 0 44.0018 0.365501 44.6524 1.0161L69.1833 25.5469C69.8338 26.1975 70.1993 27.0799 70.1993 28C70.1993 28.9201 69.8338 29.8025 69.1833 30.4531L44.6524 54.9839C44.0018 55.6345 43.1194 56 42.1994 56C41.2793 56 40.3969 55.6345 39.7463 54.9839L35.0997 50.3373ZM14.4471 26.7125L9.60188 21.8673L28 3.46918L32.6466 8.11577L15.2155 25.5469C14.8797 25.8826 14.62 26.28 14.4471 26.7125ZM37.5528 8.11578L46.1663 16.7293C46.4442 16.5504 46.7699 16.4531 47.1055 16.4531C47.5656 16.4531 48.0068 16.6358 48.3321 16.9611C48.6574 17.2864 48.8401 17.7276 48.8401 18.1877C48.8401 18.5233 48.7428 18.849 48.5639 19.1269L51.0725 21.6355C51.3504 21.4565 51.676 21.3592 52.0117 21.3592C52.4717 21.3592 52.9129 21.542 53.2382 21.8673C53.5635 22.1926 53.7463 22.6338 53.7463 23.0938C53.7463 23.4295 53.649 23.7551 53.47 24.033L54.9839 25.5469C55.6345 26.1975 56 27.0799 56 28C56 28.9201 55.6345 29.8025 54.9839 30.4531L43.6855 41.7515L48.3321 46.3981L66.7302 28L42.1994 3.46918L37.5528 8.11578ZM41.2324 44.2046L45.879 48.8512L42.1994 52.5308L37.5528 47.8842L41.2324 44.2046ZM41.2324 39.2984L52.5308 28L51.0447 26.5139L43.4259 34.1327C43.1006 34.458 42.6594 34.6408 42.1994 34.6408C41.7393 34.6408 41.2981 34.458 40.9728 34.1327C40.6475 33.8074 40.4648 33.3662 40.4648 32.9062C40.4648 32.4461 40.6475 32.0049 40.9728 31.6796L48.5916 24.0608L46.1385 21.6077L38.5197 29.2265C38.1944 29.5518 37.7532 29.7346 37.2932 29.7346C36.8331 29.7346 36.3919 29.5518 36.0667 29.2265C35.7413 28.9012 35.5586 28.46 35.5586 28C35.5586 27.9286 35.563 27.8577 35.5716 27.7876L32.6466 30.7126L41.2324 39.2984ZM31.6796 48.8512L28 52.5308L3.46918 28L7.1488 24.3204L31.6796 48.8512Z" fill="#017FC1"/>
</svg>
